<svg width="13" height="15" fill="none" xmlns="http://www.w3.org/2000/svg"><path d="M11.412 9.09c-.456-.46-.927-.937-.927-3.188 0-2.28-1.635-4.177-3.768-4.526a.89.89 0 00.15-.497A.869.869 0 006.01 0a.869.869 0 00-.858.879c0 .178.052.35.15.497-2.133.349-3.768 2.245-3.768 4.526 0 2.25-.47 2.728-.927 3.189-1.29 1.305-.345 3.216 1.19 3.216h2.496c0 .97.769 1.758 1.717 1.758.948 0 1.717-.788 1.717-1.758h2.497c1.534 0 2.48-1.912 1.19-3.216zM6.01 12.967a.652.652 0 01-.644-.66h1.288c0 .364-.289.66-.644.66zm4.214-1.978H1.795c-.45 0-.675-.56-.358-.884.767-.786 1.384-1.531 1.384-4.202 0-1.8 1.43-3.265 3.188-3.265 1.758 0 3.189 1.465 3.189 3.265 0 2.683.623 3.422 1.383 4.202.318.325.09.884-.357.884z" fill="#939393"/></svg>