<svg xmlns="http://www.w3.org/2000/svg" viewBox="0 0 178.89 26"><g data-name="Layer 2"><g data-name="Layer 1"><path d="M3.77 2.31A2.5 2.5 0 016.17.5h161.19a2.5 2.5 0 012.5 2.5v20a2.5 2.5 0 01-2.5 2.5H6.05a2.49 2.49 0 01-2.36-1.69l-3-8.9a2.48 2.48 0 010-1.5z" stroke="#443f40" fill="none"/><path d="M136.53 2a2.5 2.5 0 012.31-1.5h33.87a2.5 2.5 0 012.39 1.79L178.29 13a2.44 2.44 0 010 1.51l-3.1 9.27a2.52 2.52 0 01-2.38 1.71h-34a2.52 2.52 0 01-2.26-1.43l-4.41-9.29a2.46 2.46 0 010-2z" stroke="#b88d48" fill="#1b1b1c"/><path d="M155.91 14.23L153 17m7-4.58a2.51 2.51 0 11-2.47-2.42 2.46 2.46 0 012.47 2.42z" stroke="#b88d48" fill="none"/></g></g></svg>