<svg width="23" height="23" fill="none" xmlns="http://www.w3.org/2000/svg"><circle cx="11.5" cy="11.5" r="11" stroke="#443F40"/><path d="M10.332 6.216a.413.413 0 010-.584l1.752-1.751a.413.413 0 11.583.584l-.823.823a6.191 6.191 0 013.364 11.14.412.412 0 11-.495-.66 5.366 5.366 0 00-3.268-9.665.415.415 0 01-.06-.004l1.283 1.283a.413.413 0 01-.584.584l-1.752-1.75zm2.335 10.507a.413.413 0 010 .584l-1.75 1.75a.413.413 0 01-.585-.583l.824-.823A6.191 6.191 0 017.79 6.511a.413.413 0 01.496.66 5.366 5.366 0 003.267 9.665c.02 0 .042.001.06.004l-1.282-1.284a.415.415 0 01-.005-.589.414.414 0 01.59.005l1.75 1.751z" fill="#443F40"/></svg>