<svg width="241" height="126" fill="none" xmlns="http://www.w3.org/2000/svg"><g filter="url(#filter0_d)"><path d="M53.43 52.176A3 3 0 0156.316 50H217.5a3 3 0 013 3v20a3 3 0 01-3 3H56.195a3 3 0 01-2.838-2.027l-3.051-8.9a3 3 0 01-.047-1.797l3.172-11.1z" fill="#121413"/><path d="M53.911 52.313a2.5 2.5 0 012.404-1.813H217.5A2.5 2.5 0 01220 53v20a2.5 2.5 0 01-2.5 2.5H56.195a2.5 2.5 0 01-2.365-1.69l-3.051-8.9a2.5 2.5 0 01-.04-1.497l3.172-11.1z" stroke="#443F40"/></g><defs><filter id="filter0_d" x=".143" y="0" width="270.356" height="126" filterUnits="userSpaceOnUse" color-interpolation-filters="sRGB"><feFlood flood-opacity="0" result="BackgroundImageFix"/><feColorMatrix in="SourceAlpha" values="0 0 0 0 0 0 0 0 0 0 0 0 0 0 0 0 0 0 127 0"/><feOffset/><feGaussianBlur stdDeviation="25"/><feColorMatrix values="0 0 0 0 0 0 0 0 0 0 0 0 0 0 0 0 0 0 0.2 0"/><feBlend in2="BackgroundImageFix" result="effect1_dropShadow"/><feBlend in="SourceGraphic" in2="effect1_dropShadow" result="shape"/></filter></defs></svg>