<svg width="48" height="26" fill="none" xmlns="http://www.w3.org/2000/svg"><path d="M5.493 2.03A2.5 2.5 0 017.796.5h33.87a2.5 2.5 0 012.397 1.788l3.188 10.726a2.5 2.5 0 01-.026 1.506l-3.109 9.274a2.5 2.5 0 01-2.37 1.706H7.7a2.5 2.5 0 01-2.258-1.427l-4.415-9.294a2.5 2.5 0 01-.046-2.043l4.51-10.707z" fill="#1B1B1C" stroke="#B88D48"/><path d="M24.868 14.235L22 17m7-4.58c0 1.336-1.123 2.42-2.51 2.42-1.385 0-2.508-1.084-2.508-2.42 0-1.337 1.123-2.42 2.509-2.42S29 11.083 29 12.42z" stroke="#B88D48"/></svg>