<svg width="18" height="17" fill="none" xmlns="http://www.w3.org/2000/svg"><path d="M.687 10.98C1.729 14.464 4.913 17 8.678 17c4.613 0 8.353-3.806 8.353-8.5S13.29 0 8.678 0C4.252 0 .63 3.504.344 7.935l.01.017v-.018L4.82 9.82a2.227 2.227 0 011.362-.387l2.034-3.03-.001-.043c0-1.788 1.416-3.243 3.156-3.243 1.741 0 3.157 1.455 3.157 3.243 0 1.788-1.416 3.245-3.157 3.245l-.071-.002-2.91 2.133c.009.33-.05.66-.177.974-.488 1.204-1.84 1.777-3.013 1.274a2.348 2.348 0 01-1.362-1.67L.687 10.979z" fill="#fff"/><path d="M7.727 12.501c-.378.93-1.42 1.372-2.325.984a1.789 1.789 0 01-.915-.895l1.027.437a1.297 1.297 0 001.712-.725c.279-.686-.037-1.473-.705-1.758l-1.062-.452c.41-.16.876-.165 1.311.02.439.188.78.54.96.991.18.451.18.949-.003 1.398z" fill="#fff"/><path fill-rule="evenodd" clip-rule="evenodd" d="M9.268 6.36c0 1.192.944 2.161 2.103 2.161 1.16 0 2.104-.97 2.104-2.161 0-1.19-.944-2.16-2.104-2.16-1.159 0-2.103.97-2.103 2.16zm2.107 1.62c-.872 0-1.58-.727-1.58-1.624 0-.896.708-1.624 1.58-1.624.872 0 1.58.728 1.58 1.624 0 .897-.708 1.624-1.58 1.624z" fill="#fff"/></svg>