<svg width="17" height="17" fill="none" xmlns="http://www.w3.org/2000/svg"><rect width="17" height="17" rx="8.5" fill="#2568CD"/><path fill-rule="evenodd" clip-rule="evenodd" d="M8.398 11.962h.667s.2-.031.3-.127c.1-.095.1-.285.1-.285s0-.825.4-.951c.4-.127.934.824 1.468 1.173.4.285.7.222.7.222l1.468-.032s.767-.031.4-.634c-.034-.032-.2-.412-1.1-1.205-.934-.825-.801-.666.3-2.093.666-.857.933-1.364.866-1.618-.066-.222-.567-.158-.567-.158h-1.667s-.133-.032-.2.031c-.1.064-.133.159-.133.159s-.267.666-.6 1.237c-.734 1.173-1.034 1.237-1.134 1.173-.267-.158-.2-.697-.2-1.046 0-1.142.2-1.618-.367-1.745-.167-.031-.3-.063-.767-.063-.6 0-1.1 0-1.367.127-.2.095-.334.285-.234.285s.367.064.5.222c.134.286.134.761.134.761s.1 1.364-.234 1.523c-.233.127-.533-.127-1.2-1.205-.334-.54-.6-1.174-.6-1.174s-.034-.127-.134-.19a.933.933 0 00-.267-.095H3.363s-.233 0-.333.095c-.067.095 0 .254 0 .254s1.233 2.727 2.634 4.122c1.3 1.332 2.734 1.237 2.734 1.237z" fill="#DADADA"/></svg>