<svg width="20" height="15" fill="none" xmlns="http://www.w3.org/2000/svg"><path d="M8.37 9.894l5.142-2.698-5.142-2.72v5.418z" fill="#fff"/><path opacity=".12" d="M8.37 4.477l4.51 3.05.632-.33-5.142-2.72z" fill="#420000"/><path d="M19.643 3.535s-.186-1.326-.758-1.914c-.72-.769-1.53-.769-1.909-.814-2.651-.196-6.64-.196-6.64-.196h-.007s-3.989 0-6.655.196c-.371.045-1.18.045-1.909.814-.564.588-.75 1.914-.75 1.914S.822 5.102.822 6.66v1.462c0 1.56.193 3.119.193 3.119s.186 1.326.758 1.913c.72.769 1.67.746 2.094.822 1.523.15 6.462.195 6.462.195s3.996-.007 6.655-.203c.371-.045 1.18-.045 1.908-.814.572-.587.758-1.913.758-1.913s.193-1.56.193-3.12v-1.46c-.007-1.56-.2-3.127-.2-3.127zM8.368 9.893V4.476l5.14 2.72-5.14 2.697z" fill="url(#paint0_linear)"/><defs><linearGradient id="paint0_linear" x1="10.329" y1=".611" x2="10.329" y2="14.177" gradientUnits="userSpaceOnUse"><stop stop-color="#E52D27"/><stop offset="1" stop-color="#BF171D"/></linearGradient></defs></svg>