<svg xmlns="http://www.w3.org/2000/svg" viewBox="0 0 12.67 11.19"><g data-name="Layer 2"><path d="M1.27 0h.93v4.6h-.93zm0 8.41h.93v2.79h-.93zm4.56-2.83h.93v5.62h-.93zm0-5.58h.93v1.82h-.93zm4.56 0h.93v5.53h-.93zm0 9.25h.93v1.94h-.93zM3.55 6.14l-.34-.51v-.01H.34v.01L0 6.14v.73l.34.51v.01h2.87v-.01l.34-.51v-.73zm4.56-2.79l-.34-.51v-.01H4.9v.02l-.34.5v.73l.34.51v.01h2.87v-.01l.34-.51v-.73zm4.56 3.72l-.34-.51v-.01H9.46v.01l-.34.51v.73l.34.51v.01h2.87v-.01l.34-.51v-.73z" fill="#a88142" data-name="Layer 1"/></g></svg>