<svg width="13" height="15" viewBox="0 0 13 15" fill="none" xmlns="http://www.w3.org/2000/svg">
    <path d="M11.4122 9.09084C10.9564 8.62976 10.4854 8.15294 10.4854 5.90206C10.4854 3.62135 8.85013 1.72461 6.71716 1.37607C6.8154 1.22986 6.86789 1.05651 6.86766 0.879035C6.86766 0.39356 6.48331 0 6.0092 0C5.53509 0 5.15074 0.39356 5.15074 0.879035C5.1505 1.05652 5.20298 1.22988 5.30121 1.3761C3.16827 1.72464 1.53297 3.62137 1.53297 5.90208C1.53297 8.15277 1.06213 8.62962 0.606291 9.09073C-0.683969 10.3957 0.260923 12.3065 1.79523 12.3065H4.29229C4.29229 13.2774 5.06098 14.0646 6.0092 14.0646C6.95742 14.0646 7.72611 13.2774 7.72611 12.3065H10.2231C11.7574 12.3065 12.7023 10.3951 11.4122 9.09084ZM6.0092 12.9658C5.65417 12.9658 5.36536 12.67 5.36536 12.3065H6.65304C6.65304 12.67 6.36422 12.9658 6.0092 12.9658ZM10.2235 10.9879H1.79472C1.34505 10.9879 1.12043 10.4278 1.43701 10.1037C2.20385 9.31843 2.82065 8.57292 2.82065 5.90208C2.82065 4.10177 4.25103 2.6371 6.0092 2.6371C7.76737 2.6371 9.19775 4.10177 9.19775 5.90208C9.19775 8.58451 9.82069 9.32411 10.5811 10.1037C10.8991 10.4292 10.6712 10.9879 10.2235 10.9879Z" fill="#939393"/>
</svg>
