<svg xmlns="http://www.w3.org/2000/svg" viewBox="0 0 12.67 11.19"><defs><style>.cls-1{fill:#a88142;}</style></defs><title>fastmm-filters_icons_m_1</title><g id="Layer_2" data-name="Layer 2"><g id="Layer_1-2" data-name="Layer 1"><rect class="cls-1" x="1.27" width="0.93" height="4.6"/><rect class="cls-1" x="1.27" y="8.41" width="0.93" height="2.79"/><rect class="cls-1" x="5.83" y="5.58" width="0.93" height="5.62"/><rect class="cls-1" x="5.83" width="0.93" height="1.82"/><rect class="cls-1" x="10.39" width="0.93" height="5.53"/><rect class="cls-1" x="10.39" y="9.25" width="0.93" height="1.94"/><polygon class="cls-1" points="3.55 6.14 3.21 5.63 3.21 5.62 3.2 5.62 2.71 5.62 0.83 5.62 0.35 5.62 0.34 5.62 0.34 5.63 0 6.14 0 6.87 0.34 7.38 0.34 7.39 0.35 7.39 0.83 7.39 2.71 7.39 3.2 7.39 3.21 7.39 3.21 7.38 3.55 6.87 3.55 6.14"/><polygon class="cls-1" points="8.11 3.35 7.77 2.84 7.77 2.83 7.76 2.83 7.27 2.83 5.4 2.83 4.91 2.83 4.9 2.83 4.9 2.85 4.56 3.35 4.56 4.08 4.9 4.59 4.9 4.6 4.91 4.6 5.4 4.6 7.27 4.6 7.76 4.6 7.77 4.6 7.77 4.59 8.11 4.08 8.11 3.35"/><polygon class="cls-1" points="12.67 7.07 12.33 6.56 12.33 6.55 12.32 6.55 11.84 6.55 9.96 6.55 9.47 6.55 9.46 6.55 9.46 6.56 9.12 7.07 9.12 7.8 9.46 8.31 9.46 8.32 9.47 8.32 9.96 8.32 11.84 8.32 12.32 8.32 12.33 8.32 12.33 8.31 12.67 7.8 12.67 7.07"/></g></g></svg>