<svg xmlns="http://www.w3.org/2000/svg" viewBox="0 0 178.89 26">
    <defs>
        <style>.cls-1,.cls-3{fill:none;}.cls-1{stroke:#443f40;}.cls-2{fill:#1b1b1c;}.cls-2,.cls-3{stroke:#b88d48;}
        </style>
    </defs>
    <title>fastmm-search</title>
    <g id="Layer_2" data-name="Layer 2">
        <g id="Layer_1-2" data-name="Layer 1">
            <path class="cls-1"
                  d="M3.77,2.31A2.5,2.5,0,0,1,6.17.5H167.36a2.5,2.5,0,0,1,2.5,2.5V23a2.5,2.5,0,0,1-2.5,2.5H6.05a2.49,2.49,0,0,1-2.36-1.69l-3-8.9a2.48,2.48,0,0,1,0-1.5Z"/>
            <path class="cls-2"
                  d="M136.53,2A2.5,2.5,0,0,1,138.84.5h33.87a2.5,2.5,0,0,1,2.39,1.79L178.29,13a2.44,2.44,0,0,1,0,1.51l-3.1,9.27a2.52,2.52,0,0,1-2.38,1.71h-34a2.52,2.52,0,0,1-2.26-1.43l-4.41-9.29a2.46,2.46,0,0,1,0-2Z"/>
            <path class="cls-3" d="M155.91,14.23,153,17m7-4.58A2.51,2.51,0,1,1,157.53,10,2.46,2.46,0,0,1,160,12.42Z"/>
        </g>
    </g>
</svg>