<svg width="23" height="23" viewBox="0 0 23 23" fill="none" xmlns="http://www.w3.org/2000/svg">
    <circle cx="11.5" cy="11.5" r="11" stroke="#443F40"/>
    <path d="M10.3325 6.21556C10.2551 6.13815 10.2117 6.03318 10.2117 5.92372C10.2117 5.81427 10.2551 5.7093 10.3325 5.63189L12.0835 3.8809C12.1216 3.84147 12.1671 3.81003 12.2175 3.78839C12.2679 3.76676 12.322 3.75537 12.3768 3.7549C12.4316 3.75442 12.486 3.76487 12.5367 3.78562C12.5875 3.80638 12.6335 3.83703 12.6723 3.87578C12.7111 3.91454 12.7417 3.96063 12.7625 4.01135C12.7832 4.06208 12.7937 4.11644 12.7932 4.17125C12.7927 4.22605 12.7813 4.28022 12.7597 4.33058C12.7381 4.38094 12.7066 4.42649 12.6672 4.46456L11.8441 5.28764C13.1131 5.35817 14.3296 5.81751 15.3285 6.60329C16.3275 7.38907 17.0604 8.46322 17.4278 9.6799C17.7952 10.8966 17.7792 12.1968 17.3822 13.4042C16.9851 14.6115 16.2261 15.6674 15.2082 16.4284C15.1649 16.461 15.1155 16.4846 15.063 16.4981C15.0105 16.5115 14.9558 16.5145 14.9022 16.5069C14.8485 16.4992 14.7969 16.481 14.7503 16.4534C14.7036 16.4258 14.6629 16.3893 14.6303 16.3459C14.5978 16.3025 14.5742 16.2532 14.5607 16.2007C14.5472 16.1482 14.5443 16.0935 14.5519 16.0399C14.5596 15.9862 14.5778 15.9346 14.6054 15.8879C14.633 15.8413 14.6695 15.8005 14.7129 15.768C15.6197 15.0906 16.2891 14.1438 16.6253 13.063C16.9615 11.9821 16.9473 10.8227 16.5848 9.75043C16.2223 8.67816 15.5299 7.74798 14.6069 7.09292C13.6838 6.43786 12.5772 6.09147 11.4454 6.10328C11.4252 6.10337 11.4051 6.10199 11.3851 6.09915L12.668 7.38206C12.7432 7.45991 12.7848 7.56418 12.7839 7.67241C12.7829 7.78063 12.7395 7.88416 12.663 7.9607C12.5864 8.03723 12.4829 8.08064 12.3747 8.08158C12.2665 8.08252 12.1622 8.04092 12.0843 7.96572L10.3325 6.21556Z" fill="#443F40"/>
    <path d="M12.6672 16.7232C12.7446 16.8006 12.7881 16.9056 12.7881 17.015C12.7881 17.1245 12.7446 17.2294 12.6672 17.3068L10.9162 19.0578C10.8384 19.133 10.7341 19.1746 10.6259 19.1737C10.5176 19.1728 10.4141 19.1293 10.3376 19.0528C10.261 18.9763 10.2176 18.8727 10.2167 18.7645C10.2158 18.6563 10.2574 18.552 10.3325 18.4742L11.1556 17.6511C9.88664 17.5806 8.6701 17.1212 7.67118 16.3354C6.67226 15.5497 5.93935 14.4755 5.57195 13.2588C5.20456 12.0422 5.22048 10.7419 5.61756 9.53457C6.01464 8.32725 6.77364 7.27137 7.7915 6.51029C7.83487 6.47777 7.88421 6.4541 7.93672 6.44065C7.98923 6.4272 8.04388 6.42422 8.09754 6.43188C8.1512 6.43955 8.20283 6.45771 8.24947 6.48533C8.29612 6.51294 8.33686 6.54948 8.36939 6.59284C8.40191 6.63621 8.42557 6.68556 8.43903 6.73807C8.45248 6.79058 8.45546 6.84522 8.44779 6.89889C8.44013 6.95255 8.42197 7.00417 8.39435 7.05082C8.36673 7.09746 8.3302 7.13821 8.28683 7.17073C7.38004 7.84816 6.71067 8.79497 6.37447 9.87578C6.03826 10.9566 6.05243 12.116 6.41496 13.1883C6.77748 14.2606 7.46978 15.1908 8.39286 15.8458C9.31595 16.5009 10.4225 16.8473 11.5544 16.8355C11.5742 16.8355 11.5956 16.8371 11.6146 16.8396L10.3325 15.5559C10.2931 15.5178 10.2617 15.4722 10.24 15.4219C10.2184 15.3715 10.207 15.3173 10.2065 15.2625C10.2061 15.2077 10.2165 15.1534 10.2373 15.1026C10.258 15.0519 10.2887 15.0058 10.3274 14.9671C10.3662 14.9283 10.4123 14.8977 10.463 14.8769C10.5137 14.8562 10.5681 14.8457 10.6229 14.8462C10.6777 14.8467 10.7319 14.858 10.7822 14.8797C10.8326 14.9013 10.8781 14.9328 10.9162 14.9722L12.6672 16.7232Z" fill="#443F40"/>
</svg>
