<svg width="12" height="10" viewBox="0 0 12 10" fill="none" xmlns="http://www.w3.org/2000/svg">
    <path d="M12 2.58917L11.4108 2L9.5 3.91083L7.58917 2L7 2.58917L8.91083 4.5L7 6.41042L7.58958 7L9.5 5.08917L11.4112 7L12 6.41125L10.0892 4.5L12 2.58917Z"
          fill="#FFAB2D"/>
    <path d="M0.833333 0C0.61232 0 0.400358 0.0877973 0.244078 0.244078C0.0877974 0.400358 3.41833e-08 0.61232 3.41833e-08 0.833333V2.15417C-3.13269e-05 2.26366 0.0215166 2.37209 0.0634121 2.47326C0.105308 2.57442 0.166729 2.66634 0.244167 2.74375L3.33333 5.83333V9.16667C3.33333 9.38768 3.42113 9.59964 3.57741 9.75592C3.73369 9.9122 3.94565 10 4.16667 10H5.83333C6.05435 10 6.26631 9.9122 6.42259 9.75592C6.57887 9.59964 6.66667 9.38768 6.66667 9.16667V8.33333H5.83333V9.16667H4.16667V5.4875L3.9225 5.24375L0.833333 2.15458V0.833333H9.16667V1.66667H10V0.833333C10 0.61232 9.9122 0.400358 9.75592 0.244078C9.59964 0.0877973 9.38768 0 9.16667 0H0.833333Z"
          fill="#FFAB2D"/>
</svg>
