<svg width="48" height="26" viewBox="0 0 48 26" fill="none" xmlns="http://www.w3.org/2000/svg">
    <path d="M5.49256 2.02945C5.88299 1.10263 6.79078 0.5 7.79648 0.5H24.8546H41.6662C42.7726 0.5 43.7474 1.22721 44.0626 2.28773L47.2505 13.0135C47.3971 13.5064 47.388 14.0326 47.2246 14.5202L44.1161 23.7945C43.7746 24.8133 42.8203 25.5 41.7457 25.5H7.70111C6.73599 25.5 5.85706 24.9445 5.44295 24.0727L1.02816 14.7791C0.722497 14.1357 0.705851 13.3924 0.982405 12.7359L5.49256 2.02945Z" fill="#1B1B1C" stroke="#B88D48"/>
    <path d="M24.8676 14.2345L22 17M29 12.4199C29 13.7563 27.8766 14.8397 26.4909 14.8397C25.1051 14.8397 23.9817 13.7563 23.9817 12.4199C23.9817 11.0834 25.1051 10 26.4909 10C27.8766 10 29 11.0834 29 12.4199Z" stroke="#B88D48"/>
</svg>

