<svg width="18" height="17" viewBox="0 0 18 17" fill="none" xmlns="http://www.w3.org/2000/svg">
    <path d="M0.686516 10.9795C1.72912 14.4646 4.91262 17 8.6781 17C13.291 17 17.0306 13.1943 17.0306 8.5C17.0306 3.80559 13.291 0 8.6781 0C4.25155 0 0.629571 3.50426 0.343506 7.93528C0.346813 7.94093 0.350108 7.94657 0.35339 7.95219C0.353991 7.9402 0.354358 7.93397 0.354356 7.93397L4.81956 9.81976C4.94104 9.73781 5.07051 9.66682 5.20867 9.60901C5.5221 9.47656 5.85264 9.41729 6.18205 9.43265L8.21553 6.40221C8.21482 6.38874 8.21482 6.3744 8.21482 6.36006C8.21482 4.57159 9.63073 3.11667 11.3712 3.11667C13.1124 3.11667 14.5276 4.57159 14.5276 6.36006C14.5276 8.14838 13.1124 9.60462 11.3712 9.60462C11.3476 9.60462 11.3234 9.60389 11.2999 9.60316L8.39029 11.7363C8.39885 12.0656 8.33965 12.3956 8.21268 12.7103C7.72478 13.9141 6.37243 14.4871 5.19954 13.9843C4.48267 13.6777 3.99677 13.0403 3.83827 12.3137L0.686516 10.9795Z" fill="white"/>
    <path d="M7.72709 12.5011C7.34947 13.4312 6.30761 13.8725 5.40199 13.4854C4.98421 13.3068 4.66878 12.9797 4.48682 12.5897L5.51434 13.0265C6.18221 13.312 6.94844 12.987 7.22606 12.3021C7.50454 11.6164 7.18861 10.8289 6.5211 10.5435L5.45891 10.092C5.86878 9.93247 6.33471 9.92661 6.77005 10.1125C7.20894 10.2998 7.54948 10.6526 7.72994 11.1034C7.91041 11.5542 7.9097 12.0518 7.72709 12.5011Z" fill="white"/>
    <path fill-rule="evenodd" clip-rule="evenodd" d="M9.26843 6.35998C9.26843 7.55185 10.2121 8.52141 11.3712 8.52141C12.5311 8.52141 13.4748 7.55185 13.4748 6.35998C13.4748 5.16907 12.5311 4.19922 11.3712 4.19922C10.2121 4.19922 9.26843 5.16907 9.26843 6.35998ZM11.3746 7.97992C10.503 7.97992 9.79536 7.25327 9.79536 6.35646C9.79536 5.45973 10.503 4.73242 11.3746 4.73242C12.247 4.73242 12.9546 5.45973 12.9546 6.35646C12.9546 7.25327 12.247 7.97992 11.3746 7.97992Z" fill="white"/>
</svg>
