<svg width="17" height="17" viewBox="0 0 17 17" fill="none" xmlns="http://www.w3.org/2000/svg">
    <rect width="17" height="17" rx="8.5" fill="#2568CD"/>
    <path fill-rule="evenodd" clip-rule="evenodd" d="M8.39845 11.9623H9.06538C9.06538 11.9623 9.26546 11.9306 9.3655 11.8354C9.46554 11.7403 9.46554 11.55 9.46554 11.55C9.46554 11.55 9.46554 10.7254 9.8657 10.5986C10.2659 10.4717 10.7994 11.4231 11.333 11.772C11.7331 12.0574 12.0332 11.994 12.0332 11.994L13.5005 11.9623C13.5005 11.9623 14.2675 11.9306 13.9006 11.328C13.8673 11.2963 13.7006 10.9157 12.8002 10.1229C11.8665 9.29828 11.9999 9.45685 13.1003 8.02971C13.7673 7.17343 14.034 6.666 13.9673 6.41229C13.9006 6.19029 13.4004 6.25371 13.4004 6.25371H11.7331C11.7331 6.25371 11.5997 6.222 11.533 6.28543C11.433 6.34886 11.3996 6.444 11.3996 6.444C11.3996 6.444 11.1329 7.11 10.7994 7.68086C10.0658 8.85428 9.76566 8.91771 9.66562 8.85428C9.39885 8.69571 9.46554 8.15657 9.46554 7.80771C9.46554 6.666 9.66562 6.19029 9.09873 6.06343C8.932 6.03171 8.79861 6 8.33176 6C7.73152 6 7.23132 6 6.96455 6.12686C6.76447 6.222 6.63108 6.41229 6.73112 6.41229C6.83116 6.41229 7.09793 6.47571 7.23132 6.63429C7.36471 6.91971 7.36471 7.39543 7.36471 7.39543C7.36471 7.39543 7.46475 8.75914 7.13128 8.91771C6.89785 9.04457 6.59773 8.79085 5.9308 7.71257C5.59733 7.17343 5.33056 6.53914 5.33056 6.53914C5.33056 6.53914 5.29721 6.41229 5.19717 6.34886C5.09713 6.28543 4.9304 6.25371 4.9304 6.25371H3.36311C3.36311 6.25371 3.12968 6.25371 3.02964 6.34886C2.96295 6.444 3.02964 6.60257 3.02964 6.60257C3.02964 6.60257 4.26347 9.33 5.66403 10.7254C6.96455 12.0574 8.39845 11.9623 8.39845 11.9623Z" fill="#DADADA"/>
</svg>
