<svg width="20" height="15" viewBox="0 0 20 15" fill="none" xmlns="http://www.w3.org/2000/svg">
    <path d="M8.37 9.89368L13.5116 7.19642L8.37 4.47656V9.89368Z" fill="white"/>
    <path opacity="0.12" d="M8.37 4.47656L12.8801 7.52795L13.5116 7.19644L8.37 4.47656Z" fill="#420000"/>
    <path d="M19.6426 3.53451C19.6426 3.53451 19.4569 2.20853 18.885 1.62088C18.1646 0.852415 17.355 0.852415 16.9762 0.807212C14.3248 0.611328 10.3363 0.611328 10.3363 0.611328H10.3289C10.3289 0.611328 6.34045 0.611328 3.67408 0.807212C3.30272 0.852415 2.49313 0.852415 1.76528 1.62088C1.20081 2.20853 1.01513 3.53451 1.01513 3.53451C1.01513 3.53451 0.822021 5.10158 0.822021 6.66111V8.1227C0.822021 9.68224 1.01513 11.2418 1.01513 11.2418C1.01513 11.2418 1.20081 12.5677 1.77271 13.1554C2.49313 13.9239 3.44382 13.9013 3.86719 13.9766C5.38977 14.1273 10.3289 14.1725 10.3289 14.1725C10.3289 14.1725 14.3247 14.165 16.9837 13.9691C17.355 13.9239 18.1646 13.9239 18.8925 13.1554C19.4644 12.5677 19.65 11.2418 19.65 11.2418C19.65 11.2418 19.8432 9.68224 19.8432 8.1227V6.66111C19.8357 5.10158 19.6426 3.53451 19.6426 3.53451ZM8.36813 9.89319V4.47626L13.5077 7.19602L8.36813 9.89319Z" fill="url(#paint0_linear)"/>
    <defs>
        <linearGradient id="paint0_linear" x1="10.3288" y1="0.611328" x2="10.3288" y2="14.1766" gradientUnits="userSpaceOnUse">
            <stop stop-color="#E52D27"/>
            <stop offset="1" stop-color="#BF171D"/>
        </linearGradient>
    </defs>
</svg>
